<svg version="1.1" id="Layer_1" xmlns="http://www.w3.org/2000/svg" xmlns:xlink="http://www.w3.org/1999/xlink" x="0px" y="0px"
	 width="100%" viewBox="0 0 640 640" enable-background="new 0 0 640 640" xml:space="preserve">
<path fill="#000000" opacity="1.000000" stroke="none" 
	d="
M264.952515,374.023621 
	C251.503372,382.660217 236.467545,384.850342 221.517212,387.301605 
	C209.822098,389.219147 198.511322,387.189911 187.824478,382.685150 
	C177.556305,378.356812 169.702347,370.711761 164.767029,360.731628 
	C154.566437,340.104156 155.024811,319.310272 165.662766,298.980804 
	C171.124405,288.543396 179.090134,279.941986 188.061157,272.365265 
	C194.111069,267.255676 201.480408,264.251465 208.689240,261.400238 
	C215.763535,258.602203 223.329590,256.989685 230.935242,255.825409 
	C240.551987,254.353317 248.844437,257.548615 255.950821,263.451416 
	C269.611267,274.798309 265.355042,297.022400 248.800446,304.180695 
	C236.095856,309.674225 219.379822,305.322205 212.158127,292.751007 
	C211.764511,292.065796 211.220184,291.467194 210.635498,290.679321 
	C207.167374,292.620178 205.165680,295.588623 204.172821,298.869904 
	C199.649124,313.820007 197.800095,328.773346 204.754547,343.660858 
	C212.988632,361.287567 223.623154,363.724579 241.090042,357.635651 
	C260.933014,350.718475 275.277039,336.092499 289.440704,321.471680 
	C297.326172,313.331696 304.191162,304.312134 310.644958,294.965027 
	C313.512024,290.812592 315.550903,286.295746 315.469696,281.538513 
	C315.248749,268.598755 320.182648,256.741058 322.397888,244.331528 
	C322.719727,242.528732 323.266968,240.764313 323.552734,238.957275 
	C324.923889,230.287613 324.915649,230.258286 316.855957,226.895432 
	C312.440186,225.052979 310.874786,221.891785 312.501190,217.041428 
	C307.672150,216.662552 303.255188,219.313568 298.622528,216.703400 
	C289.443329,211.531586 284.488312,200.358322 286.145752,187.873047 
	C288.708160,168.571365 300.158142,154.984863 315.099579,144.196991 
	C349.702545,119.213348 388.446716,114.489586 428.875916,124.480408 
	C453.735352,130.623642 472.086304,146.251663 481.795746,170.670197 
	C485.647705,180.357590 485.810760,190.641449 484.679962,200.752228 
	C481.205994,231.813934 464.133057,253.758408 437.581482,268.977661 
	C429.144287,273.813812 420.064667,277.065094 410.484955,278.855530 
	C408.316650,279.260773 406.330994,279.631317 405.877136,282.489441 
	C404.260223,292.671631 401.759216,302.723694 402.192200,313.173920 
	C402.342224,316.794373 403.632385,318.715393 407.353424,319.140717 
	C409.811218,319.421692 412.330078,319.957245 414.600372,320.907349 
	C418.116699,322.378967 420.368866,325.195007 419.712189,329.155670 
	C419.055847,333.114227 416.508453,335.814117 412.325897,336.180481 
	C392.034058,337.957916 371.692078,337.002625 351.372223,337.037964 
	C345.934753,337.047424 342.911163,333.899048 342.538727,329.343323 
	C342.138489,324.447327 344.665192,320.645142 350.339264,320.235504 
	C360.183655,319.524750 363.811523,313.920624 364.891815,305.064056 
	C365.737122,298.133850 367.109985,291.264313 368.372162,284.390503 
	C368.889191,281.574890 368.005463,280.317780 365.084381,280.338776 
	C358.418427,280.386780 351.750732,280.387634 345.085815,280.279541 
	C342.332581,280.234863 341.267670,281.876495 340.587769,284.096436 
	C332.771973,309.615784 315.910400,329.114502 297.853363,347.706299 
	C288.114502,357.733582 277.798920,367.208374 264.952515,374.023621 
M326.040405,195.706848 
	C326.109863,202.634476 324.074341,208.737869 318.014099,214.007553 
	C321.199860,214.339111 323.455017,214.758148 325.713531,214.776794 
	C335.216797,214.855270 344.645325,215.947723 354.102600,216.664581 
	C357.678589,216.935654 360.941864,217.526413 361.258759,221.916779 
	C361.552795,225.991547 359.600189,228.591873 355.471710,229.323105 
	C353.103912,229.742477 351.632111,230.876022 351.130920,233.419876 
	C349.651794,240.927917 347.992737,248.400360 346.428833,255.891907 
	C345.661499,259.567627 347.116547,261.091553 350.928406,260.946594 
	C356.584930,260.731445 362.256409,260.731934 367.916656,260.859283 
	C371.218048,260.933502 372.649078,259.707275 373.006042,256.320618 
	C374.575104,241.434906 376.275696,226.561279 378.142731,211.710190 
	C378.524017,208.677307 377.289673,207.334869 374.787628,206.579697 
	C371.761719,205.666428 368.620667,205.077606 365.679047,203.956070 
	C361.657440,202.422775 360.338104,199.044525 360.964996,195.041275 
	C361.581085,191.107101 364.040527,188.774063 368.152069,188.767609 
	C386.642548,188.738586 405.133789,188.697342 423.623260,188.845734 
	C429.011322,188.888977 431.360443,191.878311 431.218292,197.198380 
	C431.104431,201.459900 428.792297,203.762451 424.859192,204.198395 
	C418.757782,204.874680 416.052917,207.721283 415.693939,214.139923 
	C415.259216,221.913193 413.225800,229.584473 412.486237,237.357178 
	C411.866119,243.874603 410.029663,250.312347 410.381317,257.004028 
	C413.611816,257.361633 415.601013,255.639923 417.586182,254.288773 
	C437.407532,240.798080 449.596741,222.539215 451.546051,198.289261 
	C453.803955,170.200974 437.781921,149.548309 410.420105,142.798599 
	C386.664459,136.938477 363.813324,140.792252 341.742767,150.483536 
	C331.850037,154.827469 323.548676,161.385468 316.471802,169.554810 
	C313.896576,172.527588 313.873901,174.885757 316.935394,177.586639 
	C322.102539,182.145126 325.388702,187.821899 326.040405,195.706848 
z"/>
<path fill="#000000" opacity="1.000000" stroke="none" 
	d="
M179.270721,426.022186 
	C191.757095,425.845520 190.207321,425.181091 190.267471,436.271088 
	C190.326172,447.096436 190.131561,457.925598 190.364578,468.746307 
	C190.455093,472.949524 188.885162,474.575378 184.843201,474.185425 
	C183.853317,474.089905 182.832962,474.070740 181.848969,474.194427 
	C177.091263,474.792511 175.184082,472.853424 175.601608,467.997223 
	C175.942719,464.029938 175.474579,459.998199 175.707092,456.014984 
	C175.925110,452.279724 174.421310,451.060822 170.776718,451.049469 
	C166.949402,451.037537 165.833374,452.710663 165.978592,456.219482 
	C166.157501,460.542633 165.957993,464.880280 166.074051,469.207581 
	C166.171738,472.850525 164.488174,474.118622 160.933228,474.222473 
	C150.950302,474.514069 150.951630,474.625793 150.960739,464.777985 
	C150.970764,453.952454 151.170242,443.122467 150.910995,432.303467 
	C150.798477,427.606842 152.204117,425.337433 157.118118,425.924744 
	C158.432739,426.081848 159.786575,426.054291 161.111145,425.957489 
	C164.845154,425.684570 166.175034,427.547119 166.037323,431.066223 
	C165.920227,434.058533 166.115906,437.061981 166.045258,440.057495 
	C165.971832,443.170074 166.735748,445.142792 170.493027,445.026276 
	C173.897751,444.920685 175.899857,444.012268 175.697800,440.155548 
	C175.523804,436.834167 175.715118,433.495148 175.672531,430.164856 
	C175.643951,427.929321 176.096817,426.156006 179.270721,426.022186 
z"/>
<path fill="#000000" opacity="1.000000" stroke="none" 
	d="
M319.794128,443.229187 
	C319.888092,437.126312 324.160706,439.065979 327.110535,438.793518 
	C330.606079,438.470612 331.226807,440.774902 331.172760,443.594727 
	C331.137726,445.421936 331.151581,447.251953 331.210724,449.078583 
	C331.278931,451.186310 332.582062,451.918274 334.514709,451.936401 
	C336.524170,451.955261 337.648651,451.060791 337.700775,448.992981 
	C337.734283,447.663818 337.757721,446.334259 337.769318,445.004730 
	C337.822235,438.930695 338.231720,438.723572 344.319214,438.692291 
	C348.088257,438.672943 349.253265,440.296509 349.204498,443.805969 
	C349.086700,452.281830 349.046234,460.763123 349.226746,469.236877 
	C349.314148,473.339752 347.354767,474.312622 343.713226,474.246521 
	C340.115631,474.181183 337.402252,473.703979 337.737213,469.134491 
	C337.931152,466.489258 337.777405,463.817810 337.763519,461.158234 
	C337.751160,458.791412 337.993164,456.320465 334.380554,456.398834 
	C330.721527,456.478271 331.243256,459.128418 331.172791,461.372681 
	C331.084198,464.195862 331.020538,467.029572 331.161652,469.847931 
	C331.370422,474.017090 328.769379,474.249847 325.644135,474.220917 
	C322.414032,474.190979 319.655426,474.131561 319.741943,469.633301 
	C319.908051,460.992706 319.788971,452.346558 319.794128,443.229187 
z"/>
<path fill="#000000" opacity="1.000000" stroke="none" 
	d="
M465.967651,464.371399 
	C465.834991,457.106934 465.948120,450.269379 465.660767,443.448700 
	C465.472626,438.983826 468.020813,438.790527 471.369049,438.718475 
	C474.958191,438.641235 477.080597,439.468231 476.975769,443.640472 
	C476.816772,449.967682 476.961517,456.303986 477.049347,462.635376 
	C477.098511,466.177917 477.638763,469.613342 482.275055,469.573486 
	C486.847565,469.534180 488.110077,466.217987 488.257507,462.443359 
	C488.510773,455.956085 488.479004,449.458130 488.642853,442.966583 
	C488.682526,441.394684 488.331116,439.194733 490.755981,439.188599 
	C493.075562,439.182709 493.009277,441.295166 493.023499,442.924225 
	C493.078766,449.256042 493.176941,455.592255 493.007812,461.920105 
	C492.805420,469.491333 489.133850,473.497955 481.998444,474.358826 
	C472.947449,475.450806 468.217957,472.618958 465.967651,464.371399 
z"/>
<path fill="#000000" opacity="1.000000" stroke="none" 
	d="
M237.010651,472.103088 
	C236.094223,469.015961 235.714737,466.335205 231.724518,466.177277 
	C227.744919,466.019775 225.432449,467.120636 224.623901,471.180969 
	C224.240677,473.105530 222.950378,474.697479 220.684677,473.803406 
	C218.380234,472.894073 219.590378,471.008942 220.030731,469.521637 
	C222.622528,460.767883 225.368683,452.058441 227.847946,443.273407 
	C228.745667,440.092407 230.199768,438.554016 233.734055,438.670258 
	C236.901672,438.774384 239.046188,439.312500 239.965836,442.828339 
	C242.358688,451.976135 244.978073,461.066193 247.618408,470.146912 
	C248.360596,472.699493 247.701218,474.193146 245.021606,474.081177 
	C242.351929,473.969574 239.291122,475.352814 237.010651,472.103088 
M233.194824,458.042236 
	C232.515350,455.893951 231.835861,453.745667 230.903183,450.796844 
	C229.475922,454.675507 228.267563,457.748505 228.030441,461.561249 
	C230.437332,461.219971 233.518417,463.312988 233.194824,458.042236 
z"/>
<path fill="#000000" opacity="1.000000" stroke="none" 
	d="
M373.175598,461.313538 
	C375.106628,454.898987 377.064117,448.903687 378.627838,442.807312 
	C379.456329,439.577454 381.204529,438.617920 384.325775,438.694366 
	C387.397766,438.769623 389.599274,439.088013 390.520081,442.804718 
	C392.630310,451.322266 395.290222,459.702209 397.594757,468.174011 
	C398.127045,470.130737 400.399689,473.259918 396.772675,473.823151 
	C393.712402,474.298370 389.266296,476.377838 387.439606,471.204742 
	C386.550232,468.686127 385.959778,466.228058 382.300781,466.209167 
	C378.797668,466.191101 376.063049,466.473572 375.356201,470.640228 
	C375.035553,472.530273 373.994080,474.415009 371.721588,473.827026 
	C368.943146,473.108093 370.346283,470.955444 370.785431,469.319305 
	C371.472565,466.759277 372.281250,464.231934 373.175598,461.313538 
M378.970062,458.954865 
	C378.928741,463.982727 381.898865,460.998749 383.891571,461.162659 
	C384.197479,457.524445 382.692505,454.751831 381.429474,451.308044 
	C380.567719,453.960724 379.866150,456.120361 378.970062,458.954865 
z"/>
<path fill="#000000" opacity="1.000000" stroke="none" 
	d="
M279.714783,454.526062 
	C278.816650,458.324310 279.768127,461.591125 280.427521,464.822540 
	C281.058716,467.915894 282.623260,470.633209 286.295288,470.548462 
	C289.900208,470.465149 291.428650,467.918060 292.002899,464.669495 
	C292.259827,463.216217 292.480774,461.756561 292.747314,460.120026 
	C296.164490,459.433197 297.437622,460.944397 297.313293,464.084564 
	C297.134979,468.588837 294.658112,471.507599 290.717102,473.250702 
	C279.949890,478.013031 269.916443,472.140625 268.222076,460.145142 
	C266.275299,446.362732 276.061523,435.880157 288.236755,438.661652 
	C292.210602,439.569458 294.589966,441.930664 295.658478,445.856873 
	C296.659637,449.535553 295.297211,451.176483 291.757294,451.319244 
	C290.338440,449.949127 290.916046,448.334045 290.648071,446.910919 
	C290.166077,444.351440 288.774872,442.677460 286.091003,442.353821 
	C283.465118,442.037170 282.197052,443.710907 281.179749,445.778320 
	C279.878662,448.422455 280.312378,451.337952 279.714783,454.526062 
z"/>
<path fill="#000000" opacity="1.000000" stroke="none" 
	d="
M436.908630,474.157532 
	C432.436157,474.165680 428.445465,474.098145 424.459839,474.209595 
	C421.323486,474.297272 419.883118,472.973877 419.907837,469.793427 
	C419.977570,460.819733 420.039429,451.844177 419.923706,442.871643 
	C419.867645,438.525879 422.659698,438.720093 425.617371,438.735474 
	C428.561066,438.750763 431.384003,438.534271 431.302826,442.892639 
	C431.166687,450.202179 431.428162,457.520416 431.230286,464.827026 
	C431.130951,468.494019 432.382751,470.089386 436.107483,469.700500 
	C437.750824,469.528900 439.433167,469.604462 441.088531,469.711151 
	C442.642578,469.811340 444.872803,469.292725 444.935944,471.710114 
	C445.006805,474.423767 442.612976,473.977203 440.880829,474.126343 
	C439.725708,474.225830 438.555847,474.154114 436.908630,474.157532 
z"/>
<path fill="#000000" opacity="1.000000" stroke="none" 
	d="
M229.873871,505.228607 
	C227.669708,505.193604 227.520004,504.152191 227.563019,502.575348 
	C227.692825,497.817535 227.609894,493.053925 227.609894,488.273438 
	C230.187363,487.205200 232.688797,487.566040 235.111298,487.821991 
	C237.528244,488.077301 239.925934,490.168243 238.923737,492.028595 
	C236.332626,496.838409 238.209808,500.621704 241.073532,504.641815 
	C235.220688,506.276154 235.808350,499.839722 232.597046,499.043610 
	C229.491089,500.381348 233.769196,504.163483 229.873871,505.228607 
M232.128235,490.976318 
	C231.123489,492.535675 230.773041,494.160431 232.639557,495.204773 
	C233.588684,495.735840 234.656921,494.925201 234.972351,493.925903 
	C235.595093,491.953064 234.894775,490.708191 232.128235,490.976318 
z"/>
<path fill="#000000" opacity="1.000000" stroke="none" 
	d="
M392.221558,500.232452 
	C391.971893,499.012207 391.796906,498.192017 391.760803,497.365814 
	C391.601349,493.717499 392.030334,490.255585 395.784821,488.429535 
	C398.331818,487.190765 401.073273,487.074677 403.324860,488.944885 
	C406.353363,491.460510 406.527924,495.032959 405.936340,498.588379 
	C405.364960,502.022522 403.246094,504.396118 399.826904,505.066864 
	C396.207825,505.776825 393.802979,503.874603 392.221558,500.232452 
M396.157532,499.581787 
	C397.237244,502.203461 399.037262,503.810394 401.070831,500.885315 
	C403.042572,498.049255 402.616730,494.584320 401.055847,491.490326 
	C400.480896,490.350647 399.107178,489.990204 398.033325,490.570862 
	C394.934692,492.246399 395.630707,495.247498 395.741669,497.997589 
	C395.754669,498.319305 395.883057,498.636353 396.157532,499.581787 
z"/>
<path fill="#000000" opacity="1.000000" stroke="none" 
	d="
M335.398041,488.046997 
	C340.224152,491.483887 341.364258,497.851074 338.183441,502.138519 
	C336.369873,504.583069 333.888672,505.887939 330.813965,505.059235 
	C327.833069,504.255798 326.103333,502.212128 325.656860,499.055511 
	C324.513855,490.974121 327.454193,487.428650 335.398041,488.046997 
M334.804138,492.047119 
	C333.838348,490.671234 332.637726,489.911255 331.051971,491.000214 
	C328.926941,492.459564 329.299469,494.760590 329.326508,496.876953 
	C329.356873,499.254456 329.612061,502.139709 332.451965,502.251953 
	C335.453339,502.370514 335.655365,499.431885 335.681885,497.087952 
	C335.698364,495.630066 335.347168,494.167999 334.804138,492.047119 
z"/>
<path fill="#000000" opacity="1.000000" stroke="none" 
	d="
M266.998962,487.669037 
	C271.225464,487.785950 273.072937,490.040985 273.769775,493.526550 
	C274.531464,497.336548 274.163757,500.902679 270.989014,503.560791 
	C267.220917,506.715668 262.188934,505.327545 260.377045,500.753448 
	C257.916504,494.541840 260.516266,489.060577 266.998962,487.669037 
M263.357697,496.397095 
	C263.625580,498.841766 263.477356,501.995148 266.753723,502.087494 
	C269.874451,502.175446 269.998016,499.175415 269.915741,496.863831 
	C269.827148,494.374603 270.595520,490.844757 266.846619,490.573395 
	C263.862732,490.357452 263.517914,493.212860 263.357697,496.397095 
z"/>
<path fill="#000000" opacity="1.000000" stroke="none" 
	d="
M292.938904,490.310028 
	C294.657928,487.952606 303.191742,486.585632 305.665344,487.938904 
	C307.675415,489.038666 306.833069,490.657196 306.653076,491.960754 
	C304.854431,493.399200 304.166748,490.931946 302.448303,491.566284 
	C301.394836,495.706635 302.210327,500.130005 302.241455,504.546539 
	C300.742279,505.593658 299.333588,505.336914 297.808044,504.896698 
	C297.808044,500.277161 297.808044,495.712463 297.808044,491.255737 
	C296.354980,488.997040 294.135498,495.143646 292.938904,490.310028 
z"/>
<path fill="#000000" opacity="1.000000" stroke="none" 
	d="
M203.481567,497.563538 
	C199.107697,498.580627 198.523102,500.997406 200.359772,504.248169 
	C198.910599,505.788788 197.478256,505.164917 195.791214,505.007996 
	C195.505859,499.458618 196.397491,494.016022 195.432541,487.995117 
	C199.514130,487.898163 203.898514,485.884552 206.602280,490.440033 
	C208.284332,493.274048 206.740692,495.862274 203.481567,497.563538 
M199.517075,491.983398 
	C199.428162,493.594574 198.970230,495.590302 201.667419,495.119446 
	C202.871521,494.909271 203.590912,493.737976 203.232010,492.487915 
	C202.679230,490.562500 201.602707,489.610901 199.517075,491.983398 
z"/>
<path fill="#000000" opacity="1.000000" stroke="none" 
	d="
M366.461182,490.671326 
	C365.412415,491.687744 364.436859,492.468750 364.015778,493.480530 
	C362.930603,496.087830 363.144745,498.736206 364.732544,501.105835 
	C366.884674,504.317627 369.156433,499.961182 371.777252,501.249481 
	C372.360565,504.741089 369.855896,505.141754 367.353851,505.265533 
	C362.501129,505.505524 359.707214,502.110565 359.782440,496.266144 
	C359.855560,490.584747 362.690521,487.549103 367.816254,487.630768 
	C370.371765,487.671478 372.472809,488.092255 371.658936,491.399261 
	C369.628876,492.362640 368.527252,489.887177 366.461182,490.671326 
z"/>
<path fill="#000000" opacity="1.000000" stroke="none" 
	d="
M426.817322,497.840637 
	C426.810730,494.428986 426.810730,491.464233 426.810730,488.281769 
	C427.961914,487.355896 429.344391,487.659729 430.626038,487.996979 
	C431.525330,489.406311 430.466797,490.423279 430.453369,491.532318 
	C430.433289,493.191864 430.277191,494.863831 430.427521,496.507782 
	C430.610596,498.509583 429.183441,501.176575 431.788269,502.307434 
	C434.230682,503.367767 434.531860,499.800262 436.550720,499.411163 
	C438.326874,500.926086 438.162262,503.228058 436.841400,504.211823 
	C433.850586,506.439453 430.295868,505.288300 426.823914,504.876465 
	C426.823914,502.502563 426.823914,500.395020 426.817322,497.840637 
z"/>
</svg>